<svg width="971" height="338" viewBox="0 0 971 338" fill="none" xmlns="http://www.w3.org/2000/svg">
<path d="M58.3882 12.8232C59.0812 10.7441 61.3336 8.14517 63.2394 7.10562C65.3186 6.06607 76.2339 5.37303 91.4806 5.71955C114.178 6.06607 116.603 6.41258 118.856 9.53124C120.935 12.4766 121.281 27.8967 121.281 105.69C121.281 156.801 120.415 205.314 119.549 213.977C118.509 222.64 116.083 235.461 114.178 242.564C112.272 249.668 107.42 261.796 103.435 269.246C98.9308 277.736 91.4806 288.131 84.0305 295.928C77.4467 303.032 66.0116 312.734 58.908 317.239C51.8044 321.917 40.3693 328.154 33.7855 330.926C27.2016 333.698 18.5387 336.471 14.727 337.164C9.00946 338.203 7.10361 337.683 3.81169 334.565C0.173259 331.1 0 329.54 0 305.804C0 291.943 0.693035 279.122 1.73259 277.216C2.77214 275.31 9.18271 271.152 15.9398 268.033C25.469 263.702 30.8401 259.717 37.7704 251.92C43.4879 245.683 48.3392 238.06 50.4183 232.169C52.4974 226.971 54.7498 218.655 55.6161 213.977C56.4824 209.125 57.1754 162.865 57.1754 110.888C57.1754 58.91 57.6952 14.729 58.3882 12.8232Z" fill="#0C0C0C"/>
<path fill-rule="evenodd" clip-rule="evenodd" d="M137.245 12.8232C137.938 10.7441 140.191 8.14517 142.097 7.10562C144.176 6.06607 155.091 5.37303 170.338 5.71955C193.035 6.06607 195.46 6.41258 197.713 9.53124C199.792 12.4766 200.138 27.8967 200.138 105.69C200.138 107.426 200.137 109.159 200.135 110.888H136.032C136.032 58.91 136.552 14.729 137.245 12.8232Z" fill="#0C0C0C"/>
<path fill-rule="evenodd" clip-rule="evenodd" d="M137.245 186.08C137.938 188.159 140.191 190.758 142.097 191.797C144.176 192.837 155.091 193.53 170.338 193.183C193.035 192.837 195.46 192.49 197.713 189.372C199.792 186.426 200.138 171.006 200.138 93.213C200.138 91.477 200.137 89.7439 200.135 88.0153H136.032C136.032 139.993 136.552 184.174 137.245 186.08Z" fill="#0C0C0C"/>
<path fill-rule="evenodd" clip-rule="evenodd" d="M242.622 12.8232C243.316 10.7441 245.568 8.14519 247.474 7.10563C249.553 6.06608 260.468 5.37305 275.715 5.71956C298.412 6.06608 300.837 6.4126 303.09 9.53126C305.169 12.4767 305.515 27.8967 305.515 105.69C305.515 107.426 305.514 109.159 305.512 110.888H241.41C241.41 58.91 241.929 14.729 242.622 12.8232Z" fill="#0C0C0C"/>
<path fill-rule="evenodd" clip-rule="evenodd" d="M242.622 186.08C243.316 188.159 245.568 190.758 247.474 191.797C249.553 192.837 260.468 193.53 275.715 193.183C298.412 192.837 300.837 192.49 303.09 189.372C305.169 186.426 305.515 171.006 305.515 93.213C305.515 91.477 305.514 89.7439 305.512 88.0153H241.41C241.41 139.993 241.929 184.174 242.622 186.08Z" fill="#0C0C0C"/>
<path fill-rule="evenodd" clip-rule="evenodd" d="M361.411 12.8232C362.104 10.7441 364.357 8.14519 366.263 7.10563C368.342 6.06608 379.257 5.37305 394.504 5.71956C417.201 6.06608 419.626 6.4126 421.879 9.53126C423.958 12.4767 424.304 27.8967 424.304 105.69C424.304 107.426 424.303 109.159 424.301 110.888H360.199C360.199 58.91 360.718 14.729 361.411 12.8232Z" fill="#0C0C0C"/>
<path fill-rule="evenodd" clip-rule="evenodd" d="M361.411 186.08C362.104 188.159 364.357 190.758 366.263 191.797C368.342 192.837 379.257 193.53 394.504 193.183C417.201 192.837 419.626 192.49 421.879 189.372C423.958 186.426 424.304 171.006 424.304 93.213C424.304 91.477 424.303 89.7439 424.301 88.0153H360.199C360.199 139.993 360.718 184.174 361.411 186.08Z" fill="#0C0C0C"/>
<path fill-rule="evenodd" clip-rule="evenodd" d="M412.407 6.84225C415.592 7.53529 419.572 9.78765 421.164 11.6935C422.756 13.7726 423.818 24.6879 423.287 39.9347C422.756 62.6316 422.226 65.0572 417.449 67.3096C412.938 69.3887 389.321 69.7352 270.174 69.7352C267.515 69.7352 264.861 69.7342 262.213 69.7322L262.213 5.62943C341.821 5.62944 409.488 6.14922 412.407 6.84225Z" fill="#0C0C0C"/>
<path fill-rule="evenodd" clip-rule="evenodd" d="M147.05 6.84225C143.866 7.53529 139.886 9.78765 138.293 11.6935C136.701 13.7726 135.64 24.6879 136.171 39.9347C136.701 62.6316 137.232 65.0572 142.008 67.3096C146.52 69.3887 170.137 69.7352 289.283 69.7352C291.942 69.7352 294.597 69.7342 297.244 69.7322L297.244 5.62945C217.636 5.62944 149.969 6.14922 147.05 6.84225Z" fill="#0C0C0C"/>
<path fill-rule="evenodd" clip-rule="evenodd" d="M734.531 5.01316C736.155 4.27037 739.205 4.27971 741.165 4.96338C743.253 5.76428 751.661 12.7459 762.702 23.264C779.229 38.8231 780.83 40.6663 780.818 44.0078C780.772 47.1312 772.769 56.3525 731.108 101.691C730.178 102.703 729.249 103.712 728.322 104.718L681.121 61.345C708.957 31.0522 733 5.65498 734.531 5.01316Z" fill="#0C0C0C"/>
<path fill-rule="evenodd" clip-rule="evenodd" d="M641.746 105.988C641.143 107.668 641.409 110.707 642.256 112.603C643.23 114.615 650.896 122.404 662.309 132.519C679.207 147.674 681.178 149.113 684.507 148.82C687.615 148.51 696.129 139.757 737.79 94.4191C738.719 93.4073 739.647 92.3966 740.571 91.3879L693.37 48.0148C665.534 78.3076 642.256 104.408 641.746 105.988Z" fill="#0C0C0C"/>
<path fill-rule="evenodd" clip-rule="evenodd" d="M663.236 108.004C662.766 106.511 663.179 103.685 664.07 101.86C665.086 99.9148 672.646 92.028 683.821 81.653C700.377 66.1256 702.291 64.6172 705.375 64.5811C708.253 64.5802 715.706 71.8635 752.043 109.816C752.854 110.663 753.662 111.509 754.468 112.354L708.166 156.685C683.887 131.327 663.626 109.413 663.236 108.004Z" fill="#0C0C0C"/>
<path fill-rule="evenodd" clip-rule="evenodd" d="M744.164 192.53C745.636 193.066 748.477 192.776 750.339 191.965C752.326 191.034 760.534 183.824 771.385 173.111C787.618 157.245 789.208 155.399 789.378 152.319C789.504 149.445 782.552 141.682 746.215 103.729C745.404 102.882 744.594 102.037 743.785 101.195L697.482 145.527C721.761 170.885 742.773 192.08 744.164 192.53Z" fill="#0C0C0C"/>
<path fill-rule="evenodd" clip-rule="evenodd" d="M627.728 13.1841C628.421 11.1078 630.674 8.51239 632.58 7.47423C634.659 6.43607 645.574 5.74397 660.821 6.09002C683.518 6.43607 685.943 6.78212 688.196 9.8966C690.275 12.8381 690.621 28.2374 690.621 105.926C690.621 107.66 690.62 109.391 690.618 111.117L626.516 111.117C626.516 59.2092 627.035 15.0874 627.728 13.1841Z" fill="#0C0C0C"/>
<path fill-rule="evenodd" clip-rule="evenodd" d="M627.729 186.208C628.422 188.285 630.674 190.88 632.58 191.918C634.659 192.956 645.574 193.649 660.821 193.302C683.518 192.956 685.943 192.61 688.196 189.496C690.275 186.554 690.621 171.155 690.621 93.4662C690.621 91.7324 690.62 90.0017 690.619 88.2754L626.516 88.2754C626.516 140.183 627.036 184.305 627.729 186.208Z" fill="#0C0C0C"/>
<path fill-rule="evenodd" clip-rule="evenodd" d="M439.965 12.8277C440.658 10.7473 442.911 8.14677 444.817 7.10656C446.896 6.06634 457.811 5.37287 473.058 5.71961C495.755 6.06634 498.18 6.41308 500.433 9.53372C502.512 12.481 502.858 27.9108 502.858 105.753C502.858 107.491 502.857 109.225 502.855 110.954L438.753 110.954C438.753 58.9438 439.272 14.7348 439.965 12.8277Z" fill="#0C0C0C"/>
<path fill-rule="evenodd" clip-rule="evenodd" d="M439.965 186.194C440.658 188.275 442.911 190.875 444.817 191.915C446.896 192.956 457.811 193.649 473.058 193.302C495.755 192.956 498.18 192.609 500.433 189.488C502.512 186.541 502.858 171.111 502.858 93.2686C502.858 91.5314 502.857 89.7972 502.855 88.0675L438.753 88.0675C438.753 140.078 439.272 184.287 439.965 186.194Z" fill="#0C0C0C"/>
<path fill-rule="evenodd" clip-rule="evenodd" d="M575.244 6.84224C576.773 7.53527 578.683 9.78763 579.447 11.6935C580.212 13.7726 580.721 24.6879 580.466 39.9347C580.212 62.6316 579.957 65.0572 577.664 67.3095C575.499 69.3886 564.163 69.7352 506.972 69.7352C505.696 69.7352 504.422 69.7342 503.151 69.7322L503.151 5.62942C541.363 5.62942 573.843 6.1492 575.244 6.84224Z" fill="#0C0C0C"/>
<path fill-rule="evenodd" clip-rule="evenodd" d="M447.873 6.84236C446.345 7.5354 444.434 9.78775 443.67 11.6936C442.905 13.7727 442.396 24.688 442.651 39.9348C442.905 62.6317 443.16 65.0573 445.453 67.3097C447.618 69.3888 458.954 69.7353 516.145 69.7353C517.421 69.7353 518.695 69.7343 519.966 69.7323L519.966 5.62955C481.754 5.62955 449.274 6.14933 447.873 6.84236Z" fill="#0C0C0C"/>
<path fill-rule="evenodd" clip-rule="evenodd" d="M582.908 104.556C584.436 105.249 586.347 107.501 587.111 109.407C587.875 111.486 588.385 122.401 588.13 137.648C587.875 160.345 587.621 162.771 585.328 165.023C583.163 167.102 571.826 167.449 514.636 167.449C513.36 167.449 512.086 167.448 510.815 167.446L510.815 103.343C549.027 103.343 581.507 103.863 582.908 104.556Z" fill="#0C0C0C"/>
<path fill-rule="evenodd" clip-rule="evenodd" d="M455.537 104.556C454.008 105.249 452.098 107.501 451.334 109.407C450.569 111.486 450.06 122.401 450.315 137.648C450.569 160.345 450.824 162.771 453.117 165.023C455.282 167.102 466.618 167.449 523.809 167.449C525.085 167.449 526.359 167.448 527.63 167.446L527.63 103.343C489.418 103.343 456.938 103.863 455.537 104.556Z" fill="#0C0C0C"/>
<path fill-rule="evenodd" clip-rule="evenodd" d="M549.174 12.8277C549.868 10.7473 552.12 8.14678 554.026 7.10657C556.105 6.06636 567.02 5.37288 582.267 5.71962C604.964 6.06636 607.389 6.4131 609.642 9.53373C611.721 12.481 612.067 27.9108 612.067 105.753C612.067 107.491 612.066 109.225 612.064 110.954L547.962 110.954C547.962 58.9438 548.481 14.7348 549.174 12.8277Z" fill="#0C0C0C"/>
<path fill-rule="evenodd" clip-rule="evenodd" d="M549.175 186.194C549.868 188.275 552.12 190.875 554.026 191.915C556.105 192.956 567.02 193.649 582.267 193.302C604.964 192.956 607.39 192.609 609.642 189.488C611.721 186.541 612.068 171.111 612.068 93.2686C612.068 91.5314 612.067 89.7973 612.065 88.0676L547.962 88.0676C547.962 140.078 548.482 184.287 549.175 186.194Z" fill="#0C0C0C"/>
<path fill-rule="evenodd" clip-rule="evenodd" d="M963.083 6.53679C965.04 7.41496 967.487 10.269 968.466 12.684C969.445 15.3184 970.097 29.1496 969.771 48.4692C969.445 77.2292 969.118 80.3027 966.182 83.1568C963.409 85.7913 948.89 86.2304 875.645 86.2303C874.011 86.2303 872.379 86.2291 870.752 86.2266L870.752 5C919.69 5 961.288 5.65863 963.083 6.53679Z" fill="#0C0C0C"/>
<path fill-rule="evenodd" clip-rule="evenodd" d="M815.689 6.53716C813.732 7.41533 811.285 10.2694 810.306 12.6843C809.327 15.3188 808.675 29.1499 809.001 48.4696C809.327 77.2295 809.653 80.3031 812.59 83.1571C815.363 85.7916 829.881 86.2307 903.126 86.2307C904.761 86.2307 906.393 86.2295 908.02 86.227L908.02 5.00037C859.081 5.00037 817.484 5.65899 815.689 6.53716Z" fill="#0C0C0C"/>
<path fill-rule="evenodd" clip-rule="evenodd" d="M958.201 126.101C959.855 126.836 961.922 129.223 962.749 131.243C963.576 133.447 964.128 145.016 963.852 161.177C963.576 185.234 963.301 187.805 960.82 190.192C958.477 192.396 946.211 192.763 884.331 192.763C882.95 192.763 881.572 192.762 880.197 192.76L880.197 124.816C921.542 124.816 956.685 125.367 958.201 126.101Z" fill="#0C0C0C"/>
<path fill-rule="evenodd" clip-rule="evenodd" d="M820.386 126.101C818.732 126.836 816.665 129.223 815.838 131.243C815.011 133.447 814.46 145.017 814.735 161.177C815.011 185.234 815.287 187.805 817.767 190.192C820.11 192.396 832.376 192.763 894.256 192.763C895.637 192.763 897.015 192.762 898.39 192.76L898.39 124.816C857.045 124.816 821.902 125.367 820.386 126.101Z" fill="#0C0C0C"/>
<path fill-rule="evenodd" clip-rule="evenodd" d="M932.392 42.4326C933.991 41.8738 936.728 42.1348 938.359 42.9347C940.081 43.8545 946.306 51.0636 954.223 61.79C966.11 77.6731 967.197 79.5251 966.552 82.6418C965.917 85.5521 956.98 93.494 910.961 132.35C909.934 133.218 908.908 134.083 907.885 134.945L873.736 90.5748C904.483 64.6128 930.895 42.9049 932.392 42.4326Z" fill="#0C0C0C"/>
<path fill-rule="evenodd" clip-rule="evenodd" d="M829.902 128.972C829.041 130.49 828.703 133.347 829.104 135.185C829.596 137.144 835.001 145.045 843.329 155.425C855.625 170.962 857.122 172.468 860.167 172.469C863.017 172.437 872.323 164.975 918.342 126.118C919.369 125.251 920.394 124.385 921.415 123.52L887.266 79.1504C856.518 105.112 830.66 127.54 829.902 128.972Z" fill="#0C0C0C"/>
<path fill-rule="evenodd" clip-rule="evenodd" d="M808.213 12.1634C808.906 10.0933 811.158 7.50572 813.064 6.47068C815.143 5.43563 826.058 4.7456 841.305 5.09062C864.002 5.43563 866.428 5.78065 868.68 8.88578C870.759 11.8184 871.105 27.1715 871.105 104.627C871.105 106.356 871.104 108.081 871.103 109.803L807 109.803C807 58.0504 807.52 14.061 808.213 12.1634Z" fill="#0C0C0C"/>
<path fill-rule="evenodd" clip-rule="evenodd" d="M808.213 184.668C808.906 186.738 811.158 189.326 813.064 190.361C815.143 191.396 826.058 192.086 841.305 191.741C864.002 191.396 866.428 191.051 868.68 187.946C870.759 185.013 871.106 169.66 871.106 92.2045C871.106 90.4759 871.105 88.7504 871.103 87.0293L807 87.0293C807 138.781 807.52 182.771 808.213 184.668Z" fill="#0C0C0C"/>
<rect x="863" y="69" width="45" height="35" fill="white"/>
</svg>
